name processed_emg_signals
nRows=91
nColumns=7
 
endheader
time	LGLTMED	LRF	LADDLONG	LST	LTA	LGM
1.0070000000000001	0.0631139066515035	0.0373122880621113	0.0328996907502335	0.3272346626560002	0.0677832638730545	0.5332200530553375
1.008	0.0672560799974353	0.0379893880916572	0.0329173424692837	0.3333716865874613	0.0683264202895516	0.5410166091655627
1.0090000000000001	0.0715160547331771	0.0386875826610424	0.0329606581091044	0.3395639110967772	0.0689370181963468	0.5487660393632598
1.01	0.0758929584231599	0.0394068970851789	0.0330295526016186	0.3458073036819605	0.0696159004148988	0.5564631967235935
1.0110000000000001	0.0803857863785539	0.040147339270348	0.0331239215169548	0.3520976405172781	0.0703638745420404	0.5641029049345169
1.012	0.0849934009090093	0.0409088994590522	0.0332436411439959	0.3584305090495576	0.0711817114880014	0.5716799642048973
1.0130000000000001	0.0897145307691335	0.0416915499940564	0.0333885685931783	0.364801311067798	0.07207014402075	0.579189157392334
1.014	0.0945477708051242	0.0424952451022425	0.0335585419216216	0.3712052662480892	0.0730298653197706	0.5866252563382301
1.0150000000000001	0.0994915818067424	0.0433199206988754	0.0337533802805445	0.3776374161745919	0.0740615275422461	0.5939830283965464
1.016	0.1045442905695961	0.0441654942127887	0.0339728840848433	0.3840926288360853	0.0751657404045341	0.6012572431413497
1.0170000000000001	0.1097040901723774	0.04503186443306	0.0342168352046517	0.3905656035962309	0.0763430697816624	0.6084426792367391
1.018	0.1149690404733524	0.0459189113776728	0.0344849971785363	0.3970508766344036	0.0775940363274437	0.6155341314509893
1.0190000000000001	0.1203370688301098	0.0468264961847407	0.0347771154479786	0.4035428268525767	0.0789191141176537	0.6225264177947886
1.02	0.1258059710461142	0.0477544610267618	0.0350929176126789	0.4100356822424068	0.0803187293185421	0.6294143867616031
1.0210000000000001	0.1313734125473016	0.0487026290483353	0.0354321137062299	0.4165235267054949	0.0817932588828142	0.6361929246463043
1.022	0.1370369297915252	0.0496708043276526	0.0357943964916635	0.4230003073184386	0.0833430292750146	0.6428569629166411
1.0230000000000001	0.1427939319132083	0.0506587718619673	0.0361794417763625	0.4294598420331586	0.084968315228083	0.6494014856108713
1.024	0.1486417026052888	0.0516662975771276	0.036586908745771	0.435895827801662	0.0866693385326505	0.6558215367342154
1.025	0.1545774022400277	0.0526931283611947	0.0370164403152878	0.4423018491131079	0.088446266860446	0.6621122276266822
1.026	0.1605980702299415	0.0537389921221719	0.0374676634996554	0.4486713869297469	0.0902992126229672	0.66826874427508
1.027	0.1667006276296602	0.0548035978698145	0.0379401897990796	0.4549978280067946	0.0922282318663755	0.6742863545423596
1.028	0.1728818799790852	0.055886635821564	0.0384336156012271	0.4612744745799587	0.0942333232034624	0.6801604152879016
1.029	0.1791385203876403	0.0569877775326512	0.0389475225981538	0.4674945544030234	0.0963144267835037	0.6858863793534062
1.03	0.1854671328589634	0.0581066760504888	0.0394814782171573	0.4736512311165765	0.0984714233007418	0.6914598023907204
1.031	0.1918641958548058	0.0592429660935601	0.0400350360644424	0.4797376149277672	0.1007041330423191	0.6968763495105729
1.032	0.1983260860963371	0.060396264255071	0.0406077363804997	0.4857467735797063	0.1030123149764366	0.7021318017340982
1.033	0.2048490826005001	0.0615661692318107	0.0411991065060257	0.4916717435881539	0.1053956658815952	0.7072220622321463
1.034	0.2114293709483691	0.0627522620786241	0.0418086613572876	0.4975055417221754	0.1078538195176927	0.7121431623396173
1.035	0.2180630477818556	0.063954106489027	0.0424359039098308	0.5032411767045013	0.1103863458397192	0.716891267333905
1.036	0.2247461255244333	0.065171249102532	0.0430803256894925	0.5088716611063813	0.1129927502546928	0.7214626819679818
1.037	0.2314745373209696	0.0664032198393023	0.0437414072697222	0.514390023410618	0.1156724729222506	0.725853855750617
1.038	0.2382441421910864	0.0676495322627283	0.0444186187742166	0.5197893202154286	0.1184248880991631	0.7300613879686253
1.039	0.2450507303898057	0.0689096839705543	0.0451114203839455	0.5250626485506773	0.1212493035277637	0.7340820324487655
1.04	0.25189002896855	0.0701831570151835	0.0458192628475625	0.530203158277185	0.1241449598680753	0.7379127020589107
1.041	0.2587577075288031	0.0714694183537771	0.0465415879943045	0.5352040645392837	0.1271110301731758	0.7415504729491212
1.042	0.2656493841599526	0.0727679203286696	0.0472778292483165	0.5400586602405462	0.1301466194074131	0.7449925885332401
1.043	0.272560631551947	0.0740781011785167	0.0480274121434597	0.5447603285127143	0.1332507640072519	0.7482364632108504
1.044	0.2794869832724613	0.0753993855804233	0.0487897548374565	0.5493025551481833	0.1364224314850166	0.7512796858286117
1.045	0.2864239401972824	0.0767311852231742	0.049564268624285	0.5536789409673079	0.1396605200764676	0.7541200228791415
1.046	0.2933669770816587	0.0780728994115909	0.0503503584436796	0.5578832140932498	0.1429638584338259	0.7567554214351492
1.047	0.3003115492593766	0.0794239157020147	0.0511474233866115	0.5619092421085372	0.1463312053668118	0.7591840118165395
1.048	0.3072530994555321	0.0807836105688508	0.0519548571957619	0.5657510440685868	0.1497612496348649	0.7614041099887758
1.049	0.3141870646982366	0.0821513501020794	0.0527720487601427	0.5694028023474544	0.1532526097943969	0.7634142196916843
1.05	0.3211088833138181	0.0835264907356617	0.0535983826031984	0.5728588742907653	0.15680383410529	0.7652130342988811
1.051	0.3280140019895526	0.0849083800067454	0.0544332393639461	0.5761138036504693	0.1604134005011695	0.7667994384090843
1.052	0.3348978828874372	0.0862963573456459	0.0552759962707888	0.5791623317760192	0.1640797166279416	0.768172509171576
1.053	0.3417560107921611	0.0876897548965596	0.056126027607801	0.5819994085366765	0.1678011199550533	0.7693315173485418
1.054	0.3485839002763786	0.089087898368923	0.0569827051735266	0.5846202029491686	0.1715758779638843	0.7702759281169668
1.055	0.355377102866122	0.0904901079192121	0.0578453987325785	0.5870201134845731	0.1754021884178024	0.7710054016120151
1.056	0.3621312141891085	0.0918956990628089	0.058713476460707	0.5891947780280089	0.179278179718405	0.7715197932126202
1.057	0.3688418810882003	0.0933039836154548	0.0595863053842204	0.5911400834647648	0.1832019113526453	0.7718191535683688
1.058	0.375504808681863	0.0947142706636877	0.0604632518149839	0.5928521748669862	0.1871713744355287	0.7719037283652773
1.059	0.3821157673528742	0.0961258675635667	0.0613436817823945	0.5943274642556662	0.1911844923532364	0.7717739578270463
1.06	0.3886705996461038	0.0975380809668	0.062226961463934	0.5955626389134581	0.1952391215114803	0.7714304759480765
1.061	0.3951652270560532	0.0989502178731942	0.0631124576159837	0.596554669224645	0.1993330521939336	0.7708741094548306
1.062	0.4015956566848612	0.100361586708098	0.063999538006652	0.5973008160194583	0.2034640095355459	0.7701058764928869
1.063	0.4079579877517535	0.1017714984232776	0.0648875718522142	0.5977986374006802	0.2076296546155081	0.769126985038482
1.064	0.4142484179351349	0.1031792676194061	0.0657759302587068	0.5980459950309281	0.2118275856744959	0.7679388310349885
1.065	0.4204632495285599	0.1045842136881196	0.0666639866699749	0.5980410598589134	0.2160553394605661	0.7665429962560405
1.066	0.4265988953916698	0.1059856619713979	0.0675511173232466	0.5977823172623441	0.2203103927078246	0.7649412458977597
1.067	0.4326518846771501	0.1073829449358342	0.0684367017131502	0.5972685715845996	0.2245901637517113	0.7631355259026703
1.068	0.4386188683145686	0.1087754033591918	0.0693201230648366	0.5964989500424976	0.2288920142843502	0.761127960017968
1.069	0.4444966242318567	0.1101623875264991	0.0702007688167327	0.595472905983745	0.2332132512530689	0.7589208465911161
1.07	0.4502820622945962	0.1115432584327221	0.0710780311132295	0.5941902214749162	0.2375511289047324	0.7565166551065317
1.071	0.4559722289426802	0.1129173889889207	0.0719513073074604	0.5926510092033975	0.2419028509780993	0.7539180224685285
1.072	0.4615643115033275	0.1142841652285693	0.0728200004741875	0.5908557136791543	0.2462655730456554	0.7511277490370892
1.073	0.4670556421592842	0.1156429875105818	0.0736835199326175	0.5888051117245506	0.2506364050057386	0.7481487944240393
1.074	0.4724437015515403	0.1169932717154466	0.0745412817788911	0.5865003122431102	0.2550124137248574	0.744984273057805
1.075	0.4777261219967528	0.1183344504305833	0.0753927094277997	0.5839427552611313	0.2593906258294962	0.741637449525844
1.076	0.4829006903011277	0.1196659741210127	0.0762372341630998	0.581134210238919	0.2637680306460168	0.7381117337050557
1.077	0.4879653501544475	0.120987312281259	0.0770742956957269	0.5780767736507364	0.2681415832868082	0.7344106756918539
1.078	0.4929182040909551	0.1222979545646337	0.0779033427290014	0.5747728658349811	0.272508207880244	0.7305379605446605
1.079	0.4977575150074514	0.1235974118860974	0.0787238335298519	0.5712252271187994	0.2768648009412736	0.7264974028528551
1.08	0.5024817072331212	0.1248852174951062	0.0795352365048813	0.5674369132241951	0.2812082348787315	0.7222929411473884
1.081	0.5070893671496903	0.1261609280148284	0.0803370307800116	0.5634112899650537	0.2855353616348209	0.717928632169543
1.082	0.511579243364932	0.1274241244440946	0.0811287067822203	0.5591520272467304	0.2898430164516838	0.7134086450149836
1.083	0.5159502464470597	0.1286744131182178	0.08190976682179	0.5546630923830228	0.294128021759617	0.7087372551705242
1.084	0.5202014482312938	0.1299114266245273	0.0826797256732231	0.5499487427496336	0.2983871911810712	0.7039188384605732
1.085	0.5243320807128791	0.131134824668137	0.0834381111528313	0.5450135177982107	0.3026173336441026	0.6989578649192987
1.086	0.5283415345426244	0.1323442948830918	0.0841844646906592	0.539862230459746	0.3068152575984917	0.693858892603106
1.087	0.5322293571416714	0.1335395535837524	0.084918341894239	0.5344999579704458	0.3109777753274199	0.6886265613562879
1.088	0.5359952504516239	0.1347203464509733	0.0856393131013186	0.5289320321568185	0.3151017073471832	0.6832655865410098
1.089	0.539639068334837	0.1358864491474159	0.0863469639186675	0.5231640292191873	0.3191838868871218	0.6777807527411762
1.09	0.543160813638281	0.1370376678562005	0.0870408957439811	0.5172017590540272	0.323221164441442	0.6721769074487972
1.091	0.5465606349330839	0.1381738397369594	0.0877207262679993	0.5110512541559208	0.3272104123839585	0.6664589547414399
1.092	0.5498388229409169	0.1392948332935585	0.0883860899541252	0.5047187581402226	0.3311485296359103	0.6606318489598879
1.093	0.5529958066578409	0.1404005486478846	0.0890366384929772	0.4982107139277248	0.3350324463761948	0.6547005883962148
1.094	0.5560321491863996	0.1414909177144633	0.0896720412293909	0.4915337516325204	0.3388591287826262	0.6486702090041353
1.095	0.55894854328803	0.1425659042710584	0.0902919855594794	0.4846946761936885	0.342625583792254	0.6425457781458396
1.096	0.5617458066698822	0.1436255039208353	0.0908961772953549	0.4777004547907795	0.3463288638684716	0.6363323883919233
1.097	0.564424877022932	0.1446697439421957	0.0914843409952066	0.4705582040821406	0.3499660717625014	0.6300351513927024
